<svg width="155" height="2864" viewBox="0 0 155 2864" fill="none" xmlns="http://www.w3.org/2000/svg">
<path d="M152 2863.59L152 2864.59L153 2864.59L153 2863.59L152 2863.59ZM3.00023 2863.59L2.00023 2863.59L2.00023 2864.59L3.00023 2864.59L3.00023 2863.59ZM8.20023 2775.59L9.09466 2776.04L9.09978 2776.03L9.10466 2776.02L8.20023 2775.59ZM22.6002 2759.39L23.112 2760.25L23.1229 2760.24L23.1335 2760.24L22.6002 2759.39ZM64.2002 2759.19L63.6719 2760.04L63.6772 2760.04L64.2002 2759.19ZM78.8002 2776.59L78.8002 2777.59L80.3942 2777.59L79.7006 2776.16L78.8002 2776.59ZM66.2002 2776.59L65.266 2776.24L64.748 2777.59L66.2002 2777.59L66.2002 2776.59ZM76.6002 2759.19L77.3185 2759.89L77.3185 2759.89L76.6002 2759.19ZM90.4002 2750.19L90.0765 2749.25L90.0765 2749.25L90.4002 2750.19ZM140 2761.79L140.759 2761.14L140.759 2761.14L140 2761.79ZM128 2836.39L128 2837.39L129 2837.39L129 2836.39L128 2836.39ZM122.2 2781.19L122.931 2780.51L122.93 2780.51L122.2 2781.19ZM90.6002 2781.19L91.3188 2781.89L91.3244 2781.88L91.3298 2781.88L90.6002 2781.19ZM84.6002 2836.39L83.6002 2836.39L83.6002 2837.39L84.6002 2837.39L84.6002 2836.39ZM60.8002 2836.39L60.8002 2837.39L61.8002 2837.39L61.8002 2836.39L60.8002 2836.39ZM56.0002 2785.99L56.7216 2785.3L56.7146 2785.29L56.7073 2785.29L56.0002 2785.99ZM30.8002 2785.99L31.5362 2786.67L31.5362 2786.67L30.8002 2785.99ZM26.2002 2836.39L25.2002 2836.39L25.2002 2837.39L26.2002 2837.39L26.2002 2836.39ZM152 2862.59L3.00023 2862.59L3.00023 2864.59L152 2864.59L152 2862.59ZM4.00023 2863.59L4.00023 2800.79L2.00023 2800.79L2.00023 2863.59L4.00023 2863.59ZM4.00023 2800.79C4.00023 2791.04 5.71373 2782.8 9.09466 2776.04L7.3058 2775.14C3.75339 2782.25 2.00023 2790.81 2.00023 2800.79L4.00023 2800.79ZM9.10466 2776.02C12.3594 2769.12 17.0287 2763.88 23.112 2760.25L22.0884 2758.53C15.6384 2762.38 10.7077 2767.93 7.2958 2775.17L9.10466 2776.02ZM23.1335 2760.24C29.0761 2756.49 36.3484 2754.59 45.0002 2754.59L45.0002 2752.59C36.0521 2752.59 28.3911 2754.56 22.0669 2758.55L23.1335 2760.24ZM45.0002 2754.59C51.6059 2754.59 57.824 2756.4 63.6719 2760.04L64.7285 2758.34C58.5765 2754.52 51.9945 2752.59 45.0002 2752.59L45.0002 2754.59ZM63.6772 2760.04C69.3395 2763.52 74.0926 2769.15 77.8999 2777.03L79.7006 2776.16C75.7746 2768.03 70.7943 2762.07 64.7233 2758.34L63.6772 2760.04ZM78.8002 2775.59L66.2002 2775.59L66.2002 2777.59L78.8002 2777.59L78.8002 2775.59ZM67.1345 2776.95C69.9009 2769.7 73.3044 2764.03 77.3185 2759.89L75.882 2758.5C71.6294 2762.89 68.0996 2768.81 65.266 2776.24L67.1345 2776.95ZM77.3185 2759.89C81.3541 2755.72 85.8224 2752.82 90.7239 2751.14L90.0765 2749.25C84.8447 2751.04 80.113 2754.13 75.882 2758.5L77.3185 2759.89ZM90.7239 2751.14C95.6817 2749.44 100.905 2748.59 106.4 2748.59L106.4 2746.59C100.695 2746.59 95.2521 2747.48 90.0765 2749.25L90.7239 2751.14ZM106.4 2748.59C120.422 2748.59 131.327 2753.23 139.242 2762.44L140.759 2761.14C132.407 2751.42 120.912 2746.59 106.4 2746.59L106.4 2748.59ZM139.241 2762.44C147.038 2771.54 151 2784.28 151 2800.79L153 2800.79C153 2783.97 148.963 2770.71 140.759 2761.14L139.241 2762.44ZM151 2800.79L151 2863.59L153 2863.59L153 2800.79L151 2800.79ZM129 2836.39L129 2797.99L127 2797.99L127 2836.39L129 2836.39ZM129 2797.99C129 2790.74 127.011 2784.87 122.931 2780.51L121.47 2781.88C125.123 2785.78 127 2791.11 127 2797.99L129 2797.99ZM122.93 2780.51C118.718 2776.02 113.174 2773.79 106.4 2773.79L106.4 2775.79C112.693 2775.79 117.683 2777.84 121.471 2781.88L122.93 2780.51ZM106.4 2773.79C99.6263 2773.79 94.0829 2776.02 89.8707 2780.51L91.3298 2781.88C95.1176 2777.84 100.108 2775.79 106.4 2775.79L106.4 2773.79ZM89.8816 2780.5C85.6618 2784.86 83.6002 2790.73 83.6002 2797.99L85.6002 2797.99C85.6002 2791.12 87.5387 2785.79 91.3188 2781.89L89.8816 2780.5ZM83.6002 2797.99L83.6002 2836.39L85.6002 2836.39L85.6002 2797.99L83.6002 2797.99ZM84.6002 2837.39L128 2837.39L128 2835.39L84.6002 2835.39L84.6002 2837.39ZM61.8002 2836.39L61.8002 2799.39L59.8002 2799.39L59.8002 2836.39L61.8002 2836.39ZM61.8002 2799.39C61.8002 2793.59 60.1369 2788.86 56.7216 2785.3L55.2788 2786.68C58.2636 2789.79 59.8002 2793.99 59.8002 2799.39L61.8002 2799.39ZM56.7073 2785.29C53.1663 2781.74 48.6354 2779.99 43.2002 2779.99L43.2002 2781.99C48.165 2781.99 52.1675 2783.57 55.2931 2786.7L56.7073 2785.29ZM43.2002 2779.99C37.7661 2779.99 33.3491 2781.74 30.0643 2785.32L31.5362 2786.67C34.3847 2783.57 38.2344 2781.99 43.2002 2781.99L43.2002 2779.99ZM30.0643 2785.32C26.79 2788.87 25.2002 2793.6 25.2002 2799.39L27.2002 2799.39C27.2002 2793.98 28.6771 2789.78 31.5362 2786.67L30.0643 2785.32ZM25.2002 2799.39L25.2002 2836.39L27.2002 2836.39L27.2002 2799.39L25.2002 2799.39ZM26.2002 2837.39L60.8002 2837.39L60.8002 2835.39L26.2002 2835.39L26.2002 2837.39ZM152 2723.31L152 2724.31L153 2724.31L153 2723.31L152 2723.31ZM3.00022 2723.31L2.00022 2723.31L2.00022 2724.31L3.00022 2724.31L3.00022 2723.31ZM3.00022 2696.11L3.00022 2695.11L2.00022 2695.11L2.00022 2696.11L3.00022 2696.11ZM128 2696.11L128 2697.11L129 2697.11L129 2696.11L128 2696.11ZM128 2632.31L128 2631.31L127 2631.31L127 2632.31L128 2632.31ZM152 2632.31L153 2632.31L153 2631.31L152 2631.31L152 2632.31ZM152 2722.31L3.00022 2722.31L3.00022 2724.31L152 2724.31L152 2722.31ZM4.00022 2723.31L4.00022 2696.11L2.00022 2696.11L2.00022 2723.31L4.00022 2723.31ZM3.00022 2697.11L128 2697.11L128 2695.11L3.00022 2695.11L3.00022 2697.11ZM129 2696.11L129 2632.31L127 2632.31L127 2696.11L129 2696.11ZM128 2633.31L152 2633.31L152 2631.31L128 2631.31L128 2633.31ZM151 2632.31L151 2723.31L153 2723.31L153 2632.31L151 2632.31ZM152 2624.92L151.674 2625.86L153 2626.32L153 2624.92L152 2624.92ZM3.00022 2573.52L2.00022 2573.52L2.00022 2574.23L2.67411 2574.46L3.00022 2573.52ZM3.00022 2538.32L2.67411 2537.37L2.00022 2537.6L2.00022 2538.32L3.00022 2538.32ZM152 2486.92L153 2486.92L153 2485.51L151.674 2485.97L152 2486.92ZM152 2516.52L152.315 2517.47L153 2517.24L153 2516.52L152 2516.52ZM120 2527.12L119.686 2526.17L119 2526.39L119 2527.12L120 2527.12ZM120 2584.72L119 2584.72L119 2585.44L119.68 2585.66L120 2584.72ZM152 2595.52L153 2595.52L153 2594.8L152.32 2594.57L152 2595.52ZM96.0002 2576.92L95.6832 2577.87L97.0002 2578.31L97.0002 2576.92L96.0002 2576.92ZM96.0002 2534.92L97.0002 2534.92L97.0002 2533.53L95.6832 2533.97L96.0002 2534.92ZM21.8002 2559.72L20.8002 2559.72L20.8002 2561.11L22.1172 2560.67L21.8002 2559.72ZM21.8002 2552.12L22.1172 2551.17L20.8002 2550.73L20.8002 2552.12L21.8002 2552.12ZM152.326 2623.97L3.32633 2572.57L2.67411 2574.46L151.674 2625.86L152.326 2623.97ZM4.00022 2573.52L4.00022 2538.32L2.00022 2538.32L2.00022 2573.52L4.00022 2573.52ZM3.32632 2539.26L152.326 2487.86L151.674 2485.97L2.67411 2537.37L3.32632 2539.26ZM151 2486.92L151 2516.52L153 2516.52L153 2486.92L151 2486.92ZM151.686 2515.57L119.686 2526.17L120.315 2528.07L152.315 2517.47L151.686 2515.57ZM119 2527.12L119 2584.72L121 2584.72L121 2527.12L119 2527.12ZM119.68 2585.66L151.68 2596.46L152.32 2594.57L120.32 2583.77L119.68 2585.66ZM151 2595.52L151 2624.92L153 2624.92L153 2595.52L151 2595.52ZM97.0002 2576.92L97.0002 2534.92L95.0002 2534.92L95.0002 2576.92L97.0002 2576.92ZM95.6832 2533.97L21.4832 2558.77L22.1172 2560.67L96.3172 2535.87L95.6832 2533.97ZM22.8002 2559.72L22.8002 2552.12L20.8002 2552.12L20.8002 2559.72L22.8002 2559.72ZM21.4832 2553.07L95.6832 2577.87L96.3172 2575.97L22.1172 2551.17L21.4832 2553.07ZM148.6 2433.99L149.518 2434.39L149.52 2434.38L148.6 2433.99ZM132.4 2457.59L133.093 2458.31L133.1 2458.3L132.4 2457.59ZM108 2473.19L108.372 2474.12L108.372 2474.12L108 2473.19ZM46.8002 2473.39L46.4333 2474.32L46.4403 2474.32L46.8002 2473.39ZM22.4002 2457.79L21.7 2458.5L21.7002 2458.5L22.4002 2457.79ZM6.40022 2433.99L7.32497 2433.61L7.32006 2433.6L6.40022 2433.99ZM6.00022 2375.79L6.91938 2376.18L6.92158 2376.18L6.00022 2375.79ZM20.4002 2354.19L21.0994 2354.9L21.1073 2354.9L20.4002 2354.19ZM39.8002 2341.59L40.7062 2341.17L40.3205 2340.34L39.4627 2340.65L39.8002 2341.59ZM51.2002 2365.99L51.5513 2366.93L52.564 2366.55L52.1062 2365.57L51.2002 2365.99ZM32.8002 2380.19L33.6041 2380.78L33.6118 2380.77L32.8002 2380.19ZM32.0002 2429.19L31.1469 2429.71L31.1513 2429.72L32.0002 2429.19ZM50.2002 2445.79L49.7408 2446.68L49.753 2446.68L50.2002 2445.79ZM104.8 2445.79L105.241 2446.69L105.251 2446.68L105.26 2446.68L104.8 2445.79ZM123 2429.19L123.849 2429.72L123.854 2429.71L123 2429.19ZM122.4 2380.19L123.212 2379.6L123.204 2379.59L122.4 2380.19ZM103.8 2365.99L102.894 2365.57L102.436 2366.55L103.449 2366.93L103.8 2365.99ZM115.2 2341.59L115.538 2340.65L114.68 2340.34L114.294 2341.17L115.2 2341.59ZM134.8 2354.19L135.507 2353.48L135.499 2353.47L134.8 2354.19ZM149 2375.79L148.079 2376.18L148.081 2376.18L149 2375.79ZM153.4 2404.39C153.4 2414.93 151.49 2424.66 147.68 2433.6L149.52 2434.38C153.444 2425.18 155.4 2415.18 155.4 2404.39L153.4 2404.39ZM147.683 2433.59C143.867 2442.41 138.541 2450.17 131.7 2456.88L133.1 2458.3C140.126 2451.41 145.6 2443.44 149.518 2434.39L147.683 2433.59ZM131.707 2456.87C124.871 2463.44 116.848 2468.57 107.629 2472.26L108.372 2474.12C117.819 2470.34 126.063 2465.07 133.093 2458.31L131.707 2456.87ZM107.629 2472.26C98.425 2475.94 88.3525 2477.79 77.4002 2477.79L77.4002 2479.79C88.5812 2479.79 98.9088 2477.9 108.372 2474.12L107.629 2472.26ZM77.4002 2477.79C66.4436 2477.79 56.367 2476.01 47.1601 2472.46L46.4403 2474.32C55.9001 2477.97 66.2236 2479.79 77.4002 2479.79L77.4002 2477.79ZM47.1671 2472.46C37.8162 2468.77 29.7984 2463.64 23.1003 2457.07L21.7002 2458.5C28.6021 2465.27 36.8509 2470.54 46.4334 2474.32L47.1671 2472.46ZM23.1004 2457.08C16.2646 2450.37 11.0072 2442.55 7.32489 2433.61L5.47554 2434.37C9.25987 2443.56 14.6691 2451.61 21.7 2458.5L23.1004 2457.08ZM7.32006 2433.6C3.51051 2424.66 1.60022 2414.93 1.60022 2404.39L-0.399782 2404.39C-0.399782 2415.18 1.5566 2425.18 5.48037 2434.38L7.32006 2433.6ZM1.60022 2404.39C1.60022 2393.84 3.38087 2384.44 6.91936 2376.18L5.08107 2375.4C1.41956 2383.94 -0.399783 2393.61 -0.399782 2404.39L1.60022 2404.39ZM6.92158 2376.18C10.4753 2367.75 15.2038 2360.67 21.0993 2354.9L19.7011 2353.47C13.5967 2359.44 8.72514 2366.76 5.07885 2375.4L6.92158 2376.18ZM21.1073 2354.9C26.8807 2349.12 33.2241 2345.01 40.1377 2342.53L39.4627 2340.65C32.243 2343.24 25.6531 2347.52 19.6931 2353.48L21.1073 2354.9ZM38.8942 2342.01L50.2942 2366.41L52.1062 2365.57L40.7062 2341.17L38.8942 2342.01ZM50.8491 2365.05C43.1918 2367.92 36.9004 2372.78 31.9887 2379.6L33.6118 2380.77C38.3001 2374.26 44.2754 2369.65 51.5513 2366.93L50.8491 2365.05ZM31.9964 2379.59C26.9181 2386.46 24.4002 2394.74 24.4002 2404.39L26.4002 2404.39C26.4002 2395.1 28.8157 2387.25 33.6041 2380.78L31.9964 2379.59ZM24.4002 2404.39C24.4002 2413.89 26.641 2422.34 31.1469 2429.71L32.8535 2428.67C28.5594 2421.64 26.4002 2413.56 26.4002 2404.39L24.4002 2404.39ZM31.1513 2429.72C35.6509 2436.94 41.8553 2442.6 49.7408 2446.68L50.6596 2444.9C43.0785 2440.98 37.1496 2435.57 32.8491 2428.66L31.1513 2429.72ZM49.753 2446.68C57.6506 2450.63 66.8761 2452.59 77.4002 2452.59L77.4002 2450.59C67.1243 2450.59 58.2165 2448.68 50.6474 2444.89L49.753 2446.68ZM77.4002 2452.59C87.9249 2452.59 97.2141 2450.63 105.241 2446.69L104.359 2444.89C96.653 2448.68 87.6756 2450.59 77.4002 2450.59L77.4002 2452.59ZM105.26 2446.68C113.145 2442.6 119.35 2436.94 123.849 2429.72L122.151 2428.66C117.851 2435.57 111.922 2440.98 104.341 2444.9L105.26 2446.68ZM123.854 2429.71C128.359 2422.34 130.6 2413.89 130.6 2404.39L128.6 2404.39C128.6 2413.56 126.441 2421.64 122.147 2428.67L123.854 2429.71ZM130.6 2404.39C130.6 2394.75 128.152 2386.47 123.212 2379.6L121.589 2380.77C126.248 2387.24 128.6 2395.1 128.6 2404.39L130.6 2404.39ZM123.204 2379.59C118.161 2372.78 111.806 2367.92 104.151 2365.05L103.449 2366.93C110.728 2369.65 116.773 2374.27 121.596 2380.78L123.204 2379.59ZM104.706 2366.41L116.106 2342.01L114.294 2341.17L102.894 2365.57L104.706 2366.41ZM114.863 2342.53C121.779 2345.01 128.192 2349.13 134.101 2354.9L135.499 2353.47C129.409 2347.52 122.755 2343.24 115.538 2340.65L114.863 2342.53ZM134.093 2354.9C139.858 2360.66 144.523 2367.75 148.079 2376.18L149.922 2375.4C146.277 2366.76 141.475 2359.45 135.507 2353.48L134.093 2354.9ZM148.081 2376.18C151.62 2384.44 153.4 2393.84 153.4 2404.39L155.4 2404.39C155.4 2393.61 153.581 2383.94 149.919 2375.4L148.081 2376.18ZM152 2317.51L152 2318.51L153 2318.51L153 2317.51L152 2317.51ZM3.00021 2317.51L2.00021 2317.51L2.00021 2318.51L3.00021 2318.51L3.00021 2317.51ZM3.00021 2290.31L3.00021 2289.31L2.00021 2289.31L2.00021 2290.31L3.00021 2290.31ZM80.6002 2290.31L81.5437 2290.64L82.0115 2289.31L80.6002 2289.31L80.6002 2290.31ZM78.0002 2297.71L77.3546 2298.47L78.4627 2299.41L78.9437 2298.04L78.0002 2297.71ZM3.0002 2234.31L2.0002 2234.31L2.0002 2234.77L2.35463 2235.07L3.0002 2234.31ZM3.0002 2200.11L3.64507 2199.34L2.0002 2197.95L2.0002 2200.11L3.0002 2200.11ZM73.4002 2259.51L73.3172 2260.5L76.4405 2260.76L74.0451 2258.74L73.4002 2259.51ZM54.2002 2257.91L53.6798 2257.05L51.0612 2258.65L54.1172 2258.9L54.2002 2257.91ZM152 2198.31L153 2198.31L153 2196.53L151.48 2197.45L152 2198.31ZM152 2230.31L152.521 2231.16L153 2230.87L153 2230.31L152 2230.31ZM86.4002 2270.31L85.8796 2269.45L84.6917 2270.18L85.7569 2271.07L86.4002 2270.31ZM110.2 2290.31L109.557 2291.07L109.836 2291.31L110.2 2291.31L110.2 2290.31ZM152 2290.31L153 2290.31L153 2289.31L152 2289.31L152 2290.31ZM152 2316.51L3.00021 2316.51L3.00021 2318.51L152 2318.51L152 2316.51ZM4.00021 2317.51L4.00021 2290.31L2.00021 2290.31L2.00021 2317.51L4.00021 2317.51ZM3.00021 2291.31L80.6002 2291.31L80.6002 2289.31L3.00021 2289.31L3.00021 2291.31ZM79.6568 2289.97L77.0568 2297.37L78.9437 2298.04L81.5437 2290.64L79.6568 2289.97ZM78.6458 2296.94L3.64578 2233.54L2.35463 2235.07L77.3546 2298.47L78.6458 2296.94ZM4.0002 2234.31L4.0002 2200.11L2.0002 2200.11L2.0002 2234.31L4.0002 2234.31ZM2.35533 2200.87L72.7553 2260.27L74.0451 2258.74L3.64507 2199.34L2.35533 2200.87ZM73.4833 2258.51L54.2833 2256.91L54.1172 2258.9L73.3172 2260.5L73.4833 2258.51ZM54.7206 2258.76L152.521 2199.16L151.48 2197.45L53.6798 2257.05L54.7206 2258.76ZM151 2198.31L151 2230.31L153 2230.31L153 2198.31L151 2198.31ZM151.48 2229.45L85.8796 2269.45L86.9208 2271.16L152.521 2231.16L151.48 2229.45ZM85.7569 2271.07L109.557 2291.07L110.844 2289.54L87.0436 2269.54L85.7569 2271.07ZM110.2 2291.31L152 2291.31L152 2289.31L110.2 2289.31L110.2 2291.31ZM151 2290.31L151 2317.51L153 2317.51L153 2290.31L151 2290.31ZM152 2142.22L152 2143.22L153 2143.22L153 2142.22L152 2142.22ZM3.0002 2142.22L2.0002 2142.22L2.0002 2143.22L3.0002 2143.22L3.0002 2142.22ZM3.00019 2042.82L3.00019 2041.82L2.00019 2041.82L2.00019 2042.82L3.00019 2042.82ZM27.0002 2042.82L28.0002 2042.82L28.0002 2041.82L27.0002 2041.82L27.0002 2042.82ZM27.0002 2115.02L26.0002 2115.02L26.0002 2116.02L27.0002 2116.02L27.0002 2115.02ZM68.2002 2115.02L68.2002 2116.02L69.2002 2116.02L69.2002 2115.02L68.2002 2115.02ZM68.2002 2051.82L68.2002 2050.82L67.2002 2050.82L67.2002 2051.82L68.2002 2051.82ZM92.2002 2051.82L93.2002 2051.82L93.2002 2050.82L92.2002 2050.82L92.2002 2051.82ZM92.2002 2115.02L91.2002 2115.02L91.2002 2116.02L92.2002 2116.02L92.2002 2115.02ZM152 2115.02L153 2115.02L153 2114.02L152 2114.02L152 2115.02ZM152 2141.22L3.0002 2141.22L3.0002 2143.22L152 2143.22L152 2141.22ZM4.0002 2142.22L4.00019 2042.82L2.00019 2042.82L2.0002 2142.22L4.0002 2142.22ZM3.00019 2043.82L27.0002 2043.82L27.0002 2041.82L3.00019 2041.82L3.00019 2043.82ZM26.0002 2042.82L26.0002 2115.02L28.0002 2115.02L28.0002 2042.82L26.0002 2042.82ZM27.0002 2116.02L68.2002 2116.02L68.2002 2114.02L27.0002 2114.02L27.0002 2116.02ZM69.2002 2115.02L69.2002 2051.82L67.2002 2051.82L67.2002 2115.02L69.2002 2115.02ZM68.2002 2052.82L92.2002 2052.82L92.2002 2050.82L68.2002 2050.82L68.2002 2052.82ZM91.2002 2051.82L91.2002 2115.02L93.2002 2115.02L93.2002 2051.82L91.2002 2051.82ZM92.2002 2116.02L152 2116.02L152 2114.02L92.2002 2114.02L92.2002 2116.02ZM151 2115.02L151 2142.22L153 2142.22L153 2115.02L151 2115.02ZM152 2023.03L152 2024.03L153 2024.03L153 2023.03L152 2023.03ZM3.00019 2023.03L2.00019 2023.03L2.00019 2024.03L3.00019 2024.03L3.00019 2023.03ZM8.6002 1940.83L9.50075 1941.26L9.50523 1941.26L9.50951 1941.25L8.6002 1940.83ZM24.6002 1922.43L25.1288 1923.28L25.136 1923.27L24.6002 1922.43ZM76.2002 1923.23L75.6349 1924.05L75.6455 1924.06L76.2002 1923.23ZM92.2002 1942.83L91.278 1943.22L91.7152 1944.26L92.6966 1943.7L92.2002 1942.83ZM152 1908.63L153 1908.63L153 1906.91L151.504 1907.76L152 1908.63ZM152 1939.43L152.489 1940.3L153 1940.02L153 1939.43L152 1939.43ZM86.6002 1976.03L85.7393 1975.52L83.8531 1978.71L87.0886 1976.9L86.6002 1976.03ZM97.0002 1958.43L98.0002 1958.43L98.0002 1954.77L96.1393 1957.92L97.0002 1958.43ZM97.0002 1995.83L96.0002 1995.83L96.0002 1996.83L97.0002 1996.83L97.0002 1995.83ZM152 1995.83L153 1995.83L153 1994.83L152 1994.83L152 1995.83ZM73.0002 1995.83L73.0002 1996.83L74.0002 1996.83L74.0002 1995.83L73.0002 1995.83ZM70.2002 1954.43L71.088 1953.97L71.0813 1953.96L71.0744 1953.94L70.2002 1954.43ZM62.0002 1946.03L61.5005 1946.9L61.5005 1946.9L62.0002 1946.03ZM38.0002 1946.03L38.4999 1946.9L38.5073 1946.89L38.5147 1946.89L38.0002 1946.03ZM30.0002 1954.43L30.8744 1954.92L30.8813 1954.9L30.888 1954.89L30.0002 1954.43ZM27.0002 1995.83L26.0002 1995.83L26.0002 1996.83L27.0002 1996.83L27.0002 1995.83ZM152 2022.03L3.00019 2022.03L3.00019 2024.03L152 2024.03L152 2022.03ZM4.00019 2023.03L4.00019 1967.63L2.00019 1967.63L2.00019 2023.03L4.00019 2023.03ZM4.00019 1967.63C4.00019 1957.62 5.84363 1948.84 9.50075 1941.26L7.69965 1940.39C3.89009 1948.29 2.00019 1957.37 2.00019 1967.63L4.00019 1967.63ZM9.50951 1941.25C13.0312 1933.55 18.2355 1927.57 25.1288 1923.28L24.0716 1921.58C16.8315 1926.09 11.3692 1932.38 7.69089 1940.41L9.50951 1941.25ZM25.136 1923.27C31.8773 1919 40.1484 1916.83 50.0002 1916.83L50.0002 1914.83C39.852 1914.83 31.1897 1917.06 24.0644 1921.59L25.136 1923.27ZM50.0002 1916.83C60.1015 1916.83 68.6291 1919.25 75.635 1924.05L76.7654 1922.4C69.3713 1917.34 60.4322 1914.83 50.0002 1914.83L50.0002 1916.83ZM75.6455 1924.06C82.6758 1928.75 87.8845 1935.12 91.278 1943.22L93.1224 1942.44C89.5826 1934 84.1246 1927.31 76.7549 1922.4L75.6455 1924.06ZM92.6966 1943.7L152.497 1909.5L151.504 1907.76L91.7037 1941.96L92.6966 1943.7ZM151 1908.63L151 1939.43L153 1939.43L153 1908.63L151 1908.63ZM151.512 1938.56L86.1118 1975.16L87.0886 1976.9L152.489 1940.3L151.512 1938.56ZM87.4611 1976.54L97.8611 1958.94L96.1393 1957.92L85.7393 1975.52L87.4611 1976.54ZM96.0002 1958.43L96.0002 1995.83L98.0002 1995.83L98.0002 1958.43L96.0002 1958.43ZM97.0002 1996.83L152 1996.83L152 1994.83L97.0002 1994.83L97.0002 1996.83ZM151 1995.83L151 2023.03L153 2023.03L153 1995.83L151 1995.83ZM74.0002 1995.83L74.0002 1967.23L72.0002 1967.23L72.0002 1995.83L74.0002 1995.83ZM74.0002 1967.23C74.0002 1962.17 73.0427 1957.74 71.088 1953.97L69.3124 1954.89C71.0911 1958.32 72.0002 1962.42 72.0002 1967.23L74.0002 1967.23ZM71.0744 1953.94C68.989 1950.19 66.1283 1947.26 62.4999 1945.16L61.5005 1946.9C64.8054 1948.8 67.4114 1951.47 69.326 1954.92L71.0744 1953.94ZM62.4999 1945.16C58.862 1943.06 54.6852 1942.03 50.0002 1942.03L50.0002 1944.03C54.3818 1944.03 58.2051 1944.99 61.5005 1946.9L62.4999 1945.16ZM50.0002 1942.03C45.1888 1942.03 41.003 1943.06 37.4857 1945.17L38.5147 1946.89C41.664 1945 45.4783 1944.03 50.0002 1944.03L50.0002 1942.03ZM37.5005 1945.16C33.8661 1947.26 31.0658 1950.2 29.1124 1953.97L30.888 1954.89C32.6679 1951.46 35.201 1948.8 38.4999 1946.9L37.5005 1945.16ZM29.126 1953.94C27.0286 1957.72 26.0002 1962.16 26.0002 1967.23L28.0002 1967.23C28.0002 1962.43 28.9718 1958.34 30.8744 1954.92L29.126 1953.94ZM26.0002 1967.23L26.0002 1995.83L28.0002 1995.83L28.0002 1967.23L26.0002 1967.23ZM27.0002 1996.83L73.0002 1996.83L73.0002 1994.83L27.0002 1994.83L27.0002 1996.83ZM152 1888.8L152 1889.8L153 1889.8L153 1888.8L152 1888.8ZM3.00019 1888.8L2.00019 1888.8L2.00019 1889.8L3.00019 1889.8L3.00019 1888.8ZM3.00019 1861.6L3.00019 1860.6L2.00019 1860.6L2.00019 1861.6L3.00019 1861.6ZM152 1861.6L153 1861.6L153 1860.6L152 1860.6L152 1861.6ZM152 1887.8L3.00019 1887.8L3.00019 1889.8L152 1889.8L152 1887.8ZM4.00019 1888.8L4.00019 1861.6L2.00019 1861.6L2.00019 1888.8L4.00019 1888.8ZM3.00019 1862.6L152 1862.6L152 1860.6L3.00019 1860.6L3.00019 1862.6ZM151 1861.6L151 1888.8L153 1888.8L153 1861.6L151 1861.6ZM152 1830.94L152 1831.94L153 1831.94L153 1830.94L152 1830.94ZM3.00019 1830.94L2.00019 1830.94L2.00019 1831.94L3.00019 1831.94L3.00019 1830.94ZM12.6002 1741.34L13.4758 1741.83L13.4823 1741.81L12.6002 1741.34ZM38.8002 1714.14L39.2963 1715.01L39.3008 1715.01L38.8002 1714.14ZM116.2 1714.14L116.696 1713.28L116.692 1713.27L116.2 1714.14ZM142.6 1741.34L143.48 1740.87L143.478 1740.86L142.6 1741.34ZM128 1803.74L128 1804.74L129 1804.74L129 1803.74L128 1803.74ZM121.8 1755.54L122.671 1755.05L122.668 1755.05L121.8 1755.54ZM104.2 1738.14L104.685 1737.27L104.678 1737.27L104.2 1738.14ZM50.6002 1738.14L51.0845 1739.02L50.6002 1738.14ZM33.2002 1755.54L34.0714 1756.03L34.0751 1756.03L33.2002 1755.54ZM27.0002 1803.74L26.0002 1803.74L26.0002 1804.74L27.0002 1804.74L27.0002 1803.74ZM152 1829.94L3.00019 1829.94L3.00019 1831.94L152 1831.94L152 1829.94ZM4.00019 1830.94L4.00018 1782.34L2.00018 1782.34L2.00019 1830.94L4.00019 1830.94ZM4.00018 1782.34C4.00018 1766.75 7.17143 1753.25 13.4758 1741.83L11.7246 1740.86C5.22894 1752.63 2.00018 1766.47 2.00018 1782.34L4.00018 1782.34ZM13.4823 1741.81C19.6631 1730.24 28.2651 1721.32 39.2963 1715.01L38.304 1713.28C26.9353 1719.77 18.0706 1728.98 11.7181 1740.87L13.4823 1741.81ZM39.3008 1715.01C50.1941 1708.71 62.883 1705.54 77.4002 1705.54L77.4002 1703.54C62.584 1703.54 49.5396 1706.78 38.2996 1713.28L39.3008 1715.01ZM77.4002 1705.54C91.7817 1705.54 104.542 1708.71 115.708 1715.01L116.692 1713.27C105.192 1706.78 92.0853 1703.54 77.4002 1703.54L77.4002 1705.54ZM115.704 1715.01C126.737 1721.32 135.408 1730.25 141.722 1741.82L143.478 1740.86C136.993 1728.98 128.063 1719.77 116.696 1713.28L115.704 1715.01ZM141.72 1741.82C147.894 1753.25 151 1766.74 151 1782.34L153 1782.34C153 1766.48 149.839 1752.64 143.48 1740.87L141.72 1741.82ZM151 1782.34L151 1830.94L153 1830.94L153 1782.34L151 1782.34ZM129 1803.74L129 1781.74L127 1781.74L127 1803.74L129 1803.74ZM129 1781.74C129 1771.47 126.905 1762.56 122.671 1755.05L120.929 1756.03C124.962 1763.19 127 1771.75 127 1781.74L129 1781.74ZM122.668 1755.05C118.312 1747.42 112.313 1741.49 104.685 1737.27L103.716 1739.02C111.021 1743.06 116.755 1748.73 120.932 1756.04L122.668 1755.05ZM104.678 1737.27C96.9062 1733.04 87.8026 1730.94 77.4002 1730.94L77.4002 1732.94C87.5311 1732.94 96.2942 1734.98 103.722 1739.02L104.678 1737.27ZM77.4002 1730.94C66.8675 1730.94 57.7599 1733.04 50.1159 1737.27L51.0845 1739.02C58.3738 1734.98 67.1329 1732.94 77.4002 1732.94L77.4002 1730.94ZM50.1159 1737.27C42.4849 1741.49 36.5496 1747.43 32.3253 1755.06L34.0751 1756.03C38.1175 1748.73 43.7821 1743.06 51.0845 1739.02L50.1159 1737.27ZM32.329 1755.05C28.0956 1762.56 26.0002 1771.47 26.0002 1781.74L28.0002 1781.74C28.0002 1771.75 30.0381 1763.19 34.0713 1756.03L32.329 1755.05ZM26.0002 1781.74L26.0002 1803.74L28.0002 1803.74L28.0002 1781.74L26.0002 1781.74ZM27.0002 1804.74L128 1804.74L128 1802.74L27.0002 1802.74L27.0002 1804.74ZM152 1699.15L151.674 1700.1L153 1700.55L153 1699.15L152 1699.15ZM3.00018 1647.75L2.00018 1647.75L2.00018 1648.46L2.67407 1648.7L3.00018 1647.75ZM3.00018 1612.55L2.67407 1611.61L2.00018 1611.84L2.00018 1612.55L3.00018 1612.55ZM152 1561.15L153 1561.15L153 1559.75L151.674 1560.21L152 1561.15ZM152 1590.75L152.315 1591.7L153 1591.47L153 1590.75L152 1590.75ZM120 1601.35L119.686 1600.4L119 1600.63L119 1601.35L120 1601.35ZM120 1658.95L119 1658.95L119 1659.67L119.68 1659.9L120 1658.95ZM152 1669.75L153 1669.75L153 1669.03L152.32 1668.8L152 1669.75ZM96.0002 1651.15L95.6832 1652.1L97.0002 1652.54L97.0002 1651.15L96.0002 1651.15ZM96.0002 1609.15L97.0002 1609.15L97.0002 1607.76L95.6832 1608.2L96.0002 1609.15ZM21.8002 1633.95L20.8002 1633.95L20.8002 1635.34L22.1172 1634.9L21.8002 1633.95ZM21.8002 1626.35L22.1172 1625.4L20.8002 1624.96L20.8002 1626.35L21.8002 1626.35ZM152.326 1698.21L3.32629 1646.81L2.67407 1648.7L151.674 1700.1L152.326 1698.21ZM4.00018 1647.75L4.00018 1612.55L2.00018 1612.55L2.00018 1647.75L4.00018 1647.75ZM3.32628 1613.5L152.326 1562.1L151.674 1560.21L2.67407 1611.61L3.32628 1613.5ZM151 1561.15L151 1590.75L153 1590.75L153 1561.15L151 1561.15ZM151.686 1589.8L119.686 1600.4L120.315 1602.3L152.315 1591.7L151.686 1589.8ZM119 1601.35L119 1658.95L121 1658.95L121 1601.35L119 1601.35ZM119.68 1659.9L151.68 1670.7L152.32 1668.8L120.32 1658L119.68 1659.9ZM151 1669.75L151 1699.15L153 1699.15L153 1669.75L151 1669.75ZM97.0002 1651.15L97.0002 1609.15L95.0002 1609.15L95.0002 1651.15L97.0002 1651.15ZM95.6832 1608.2L21.4832 1633L22.1172 1634.9L96.3172 1610.1L95.6832 1608.2ZM22.8002 1633.95L22.8002 1626.35L20.8002 1626.35L20.8002 1633.95L22.8002 1633.95ZM21.4832 1627.3L95.6832 1652.1L96.3172 1650.2L22.1172 1625.4L21.4832 1627.3ZM152 1518.63L152 1519.63L153 1519.63L153 1518.63L152 1518.63ZM86.0002 1518.63L86.0002 1517.63L85.7213 1517.63L85.4827 1517.78L86.0002 1518.63ZM3.00017 1568.83L2.00017 1568.83L2.00017 1570.6L3.5177 1569.69L3.00017 1568.83ZM3.00017 1537.83L2.49037 1536.97L2.00017 1537.26L2.00017 1537.83L3.00017 1537.83ZM67.8002 1499.43L68.8002 1499.43L68.8002 1497.68L67.2904 1498.57L67.8002 1499.43ZM67.8002 1510.43L67.2923 1511.29L68.8002 1512.18L68.8002 1510.43L67.8002 1510.43ZM3.00017 1472.23L2.00017 1472.23L2.00017 1472.8L2.49234 1473.09L3.00017 1472.23ZM3.00017 1441.23L3.51709 1440.38L2.00017 1439.46L2.00017 1441.23L3.00017 1441.23ZM85.8002 1491.23L85.2833 1492.09L85.5217 1492.23L85.8002 1492.23L85.8002 1491.23ZM152 1491.23L153 1491.23L153 1490.23L152 1490.23L152 1491.23ZM152 1517.63L86.0002 1517.63L86.0002 1519.63L152 1519.63L152 1517.63ZM85.4827 1517.78L2.48265 1567.98L3.5177 1569.69L86.5177 1519.49L85.4827 1517.78ZM4.00017 1568.83L4.00017 1537.83L2.00017 1537.83L2.00017 1568.83L4.00017 1568.83ZM3.50998 1538.69L68.31 1500.29L67.2904 1498.57L2.49037 1536.97L3.50998 1538.69ZM66.8002 1499.43L66.8002 1510.43L68.8002 1510.43L68.8002 1499.43L66.8002 1499.43ZM68.308 1509.57L3.508 1471.37L2.49234 1473.09L67.2923 1511.29L68.308 1509.57ZM4.00017 1472.23L4.00017 1441.23L2.00017 1441.23L2.00017 1472.23L4.00017 1472.23ZM2.48324 1442.09L85.2833 1492.09L86.3171 1490.38L3.51709 1440.38L2.48324 1442.09ZM85.8002 1492.23L152 1492.23L152 1490.23L85.8002 1490.23L85.8002 1492.23ZM151 1491.23L151 1518.63L153 1518.63L153 1491.23L151 1491.23ZM152 1422.6L152 1423.6L153 1423.6L153 1422.6L152 1422.6ZM3.00017 1422.6L2.00017 1422.6L2.00017 1423.6L3.00017 1423.6L3.00017 1422.6ZM8.20017 1334.6L9.0946 1335.05L9.09972 1335.04L9.1046 1335.03L8.20017 1334.6ZM22.6002 1318.4L23.112 1319.26L23.1228 1319.25L23.1335 1319.25L22.6002 1318.4ZM64.2002 1318.2L63.6719 1319.05L63.6772 1319.05L64.2002 1318.2ZM78.8002 1335.6L78.8002 1336.6L80.3942 1336.6L79.7005 1335.16L78.8002 1335.6ZM66.2002 1335.6L65.266 1335.24L64.7479 1336.6L66.2002 1336.6L66.2002 1335.6ZM76.6002 1318.2L77.3184 1318.9L77.3184 1318.9L76.6002 1318.2ZM90.4002 1309.2L90.0765 1308.25L90.0765 1308.25L90.4002 1309.2ZM140 1320.8L140.759 1320.15L140.759 1320.15L140 1320.8ZM128 1395.4L128 1396.4L129 1396.4L129 1395.4L128 1395.4ZM122.2 1340.2L122.93 1339.52L122.93 1339.52L122.2 1340.2ZM90.6002 1340.2L91.3188 1340.9L91.3243 1340.89L91.3297 1340.88L90.6002 1340.2ZM84.6002 1395.4L83.6002 1395.4L83.6002 1396.4L84.6002 1396.4L84.6002 1395.4ZM60.8002 1395.4L60.8002 1396.4L61.8002 1396.4L61.8002 1395.4L60.8002 1395.4ZM56.0002 1345L56.7216 1344.31L56.7145 1344.3L56.7073 1344.29L56.0002 1345ZM30.8002 1345L31.5361 1345.68L31.5361 1345.68L30.8002 1345ZM26.2002 1395.4L25.2002 1395.4L25.2002 1396.4L26.2002 1396.4L26.2002 1395.4ZM152 1421.6L3.00017 1421.6L3.00017 1423.6L152 1423.6L152 1421.6ZM4.00017 1422.6L4.00016 1359.8L2.00016 1359.8L2.00017 1422.6L4.00017 1422.6ZM4.00016 1359.8C4.00016 1350.05 5.71367 1341.81 9.0946 1335.05L7.30574 1334.15C3.75333 1341.26 2.00016 1349.82 2.00016 1359.8L4.00016 1359.8ZM9.1046 1335.03C12.3594 1328.13 17.0287 1322.88 23.112 1319.26L22.0884 1317.54C15.6384 1321.38 10.7076 1326.94 7.29574 1334.17L9.1046 1335.03ZM23.1335 1319.25C29.076 1315.5 36.3484 1313.6 45.0002 1313.6L45.0002 1311.6C36.052 1311.6 28.391 1313.57 22.0669 1317.55L23.1335 1319.25ZM45.0002 1313.6C51.6059 1313.6 57.8239 1315.41 63.6719 1319.05L64.7285 1317.35C58.5765 1313.52 51.9945 1311.6 45.0002 1311.6L45.0002 1313.6ZM63.6772 1319.05C69.3395 1322.53 74.0925 1328.16 77.8998 1336.04L79.7005 1335.16C75.7745 1327.04 70.7942 1321.07 64.7232 1317.35L63.6772 1319.05ZM78.8002 1334.6L66.2002 1334.6L66.2002 1336.6L78.8002 1336.6L78.8002 1334.6ZM67.1344 1335.96C69.9008 1328.71 73.3043 1323.04 77.3184 1318.9L75.8819 1317.5C71.6294 1321.89 68.0995 1327.82 65.266 1335.24L67.1344 1335.96ZM77.3184 1318.9C81.354 1314.73 85.8224 1311.82 90.7239 1310.15L90.0765 1308.25C84.8446 1310.04 80.113 1313.14 75.8819 1317.5L77.3184 1318.9ZM90.7239 1310.15C95.6816 1308.45 100.905 1307.6 106.4 1307.6L106.4 1305.6C100.695 1305.6 95.2521 1306.48 90.0765 1308.25L90.7239 1310.15ZM106.4 1307.6C120.422 1307.6 131.327 1312.24 139.242 1321.45L140.759 1320.15C132.407 1310.43 120.912 1305.6 106.4 1305.6L106.4 1307.6ZM139.241 1321.45C147.038 1330.55 151 1343.29 151 1359.8L153 1359.8C153 1342.98 148.963 1329.72 140.759 1320.15L139.241 1321.45ZM151 1359.8L151 1422.6L153 1422.6L153 1359.8L151 1359.8ZM129 1395.4L129 1357L127 1357L127 1395.4L129 1395.4ZM129 1357C129 1349.75 127.011 1343.88 122.93 1339.52L121.47 1340.88C125.123 1344.79 127 1350.12 127 1357L129 1357ZM122.93 1339.52C118.718 1335.02 113.174 1332.8 106.4 1332.8L106.4 1334.8C112.693 1334.8 117.683 1336.84 121.471 1340.88L122.93 1339.52ZM106.4 1332.8C99.6262 1332.8 94.0828 1335.02 89.8706 1339.52L91.3297 1340.88C95.1175 1336.84 100.107 1334.8 106.4 1334.8L106.4 1332.8ZM89.8816 1339.5C85.6617 1343.87 83.6002 1349.74 83.6002 1357L85.6002 1357C85.6002 1350.13 87.5386 1344.8 91.3188 1340.9L89.8816 1339.5ZM83.6002 1357L83.6002 1395.4L85.6002 1395.4L85.6002 1357L83.6002 1357ZM84.6002 1396.4L128 1396.4L128 1394.4L84.6002 1394.4L84.6002 1396.4ZM61.8002 1395.4L61.8002 1358.4L59.8002 1358.4L59.8002 1395.4L61.8002 1395.4ZM61.8002 1358.4C61.8002 1352.6 60.1368 1347.87 56.7216 1344.31L55.2788 1345.69C58.2635 1348.8 59.8002 1353 59.8002 1358.4L61.8002 1358.4ZM56.7073 1344.29C53.1662 1340.75 48.6354 1339 43.2002 1339L43.2002 1341C48.165 1341 52.1675 1342.58 55.2931 1345.71L56.7073 1344.29ZM43.2002 1339C37.766 1339 33.349 1340.75 30.0642 1344.32L31.5361 1345.68C34.3846 1342.58 38.2343 1341 43.2002 1341L43.2002 1339ZM30.0642 1344.32C26.79 1347.88 25.2002 1352.61 25.2002 1358.4L27.2002 1358.4C27.2002 1352.99 28.6771 1348.78 31.5361 1345.68L30.0642 1344.32ZM25.2002 1358.4L25.2002 1395.4L27.2002 1395.4L27.2002 1358.4L25.2002 1358.4ZM26.2002 1396.4L60.8002 1396.4L60.8002 1394.4L26.2002 1394.4L26.2002 1396.4ZM152 1282.32L152 1283.32L153 1283.32L153 1282.32L152 1282.32ZM3.00016 1282.32L2.00016 1282.32L2.00016 1283.32L3.00016 1283.32L3.00016 1282.32ZM3.00016 1255.12L3.00016 1254.12L2.00016 1254.12L2.00016 1255.12L3.00016 1255.12ZM128 1255.12L128 1256.12L129 1256.12L129 1255.12L128 1255.12ZM128 1191.32L128 1190.32L127 1190.32L127 1191.32L128 1191.32ZM152 1191.32L153 1191.32L153 1190.32L152 1190.32L152 1191.32ZM152 1281.32L3.00016 1281.32L3.00016 1283.32L152 1283.32L152 1281.32ZM4.00016 1282.32L4.00016 1255.12L2.00016 1255.12L2.00016 1282.32L4.00016 1282.32ZM3.00016 1256.12L128 1256.12L128 1254.12L3.00016 1254.12L3.00016 1256.12ZM129 1255.12L129 1191.32L127 1191.32L127 1255.12L129 1255.12ZM128 1192.32L152 1192.32L152 1190.32L128 1190.32L128 1192.32ZM151 1191.32L151 1282.32L153 1282.32L153 1191.32L151 1191.32ZM152 1183.92L151.674 1184.87L153 1185.33L153 1183.92L152 1183.92ZM3.00015 1132.52L2.00015 1132.52L2.00016 1133.24L2.67405 1133.47L3.00015 1132.52ZM3.00015 1097.32L2.67405 1096.38L2.00015 1096.61L2.00015 1097.32L3.00015 1097.32ZM152 1045.92L153 1045.92L153 1044.52L151.674 1044.98L152 1045.92ZM152 1075.52L152.315 1076.47L153 1076.25L153 1075.52L152 1075.52ZM120 1086.12L119.686 1085.18L119 1085.4L119 1086.12L120 1086.12ZM120 1143.72L119 1143.72L119 1144.44L119.68 1144.67L120 1143.72ZM152 1154.52L153 1154.52L153 1153.81L152.32 1153.58L152 1154.52ZM96.0002 1135.92L95.6832 1136.87L97.0002 1137.31L97.0002 1135.92L96.0002 1135.92ZM96.0002 1093.92L97.0002 1093.92L97.0002 1092.54L95.6832 1092.98L96.0002 1093.92ZM21.8002 1118.72L20.8002 1118.72L20.8002 1120.11L22.1172 1119.67L21.8002 1118.72ZM21.8002 1111.12L22.1172 1110.18L20.8002 1109.74L20.8002 1111.12L21.8002 1111.12ZM152.326 1182.98L3.32626 1131.58L2.67405 1133.47L151.674 1184.87L152.326 1182.98ZM4.00015 1132.52L4.00015 1097.32L2.00015 1097.32L2.00015 1132.52L4.00015 1132.52ZM3.32626 1098.27L152.326 1046.87L151.674 1044.98L2.67405 1096.38L3.32626 1098.27ZM151 1045.92L151 1075.52L153 1075.52L153 1045.92L151 1045.92ZM151.686 1074.58L119.686 1085.18L120.315 1087.07L152.315 1076.47L151.686 1074.58ZM119 1086.12L119 1143.72L121 1143.72L121 1086.12L119 1086.12ZM119.68 1144.67L151.68 1155.47L152.32 1153.58L120.32 1142.78L119.68 1144.67ZM151 1154.52L151 1183.92L153 1183.92L153 1154.52L151 1154.52ZM97.0002 1135.92L97.0002 1093.92L95.0002 1093.92L95.0002 1135.92L97.0002 1135.92ZM95.6832 1092.98L21.4832 1117.78L22.1172 1119.67L96.3172 1094.87L95.6832 1092.98ZM22.8002 1118.72L22.8002 1111.12L20.8002 1111.12L20.8002 1118.72L22.8002 1118.72ZM21.4832 1112.07L95.6832 1136.87L96.3172 1134.98L22.1172 1110.18L21.4832 1112.07ZM148.6 992.997L149.518 993.394L149.52 993.389L148.6 992.997ZM132.4 1016.6L133.093 1017.32L133.1 1017.31L132.4 1016.6ZM108 1032.2L108.372 1033.13L108.372 1033.13L108 1032.2ZM46.8002 1032.4L46.4333 1033.33L46.4403 1033.33L46.8002 1032.4ZM22.4002 1016.8L21.7 1017.51L21.7001 1017.51L22.4002 1016.8ZM6.40015 992.997L7.3249 992.616L7.32 992.605L6.40015 992.997ZM6.00016 934.797L6.91932 935.191L6.92152 935.186L6.00016 934.797ZM20.4001 913.197L21.0993 913.912L21.1073 913.904L20.4001 913.197ZM39.8001 900.597L40.7061 900.174L40.3204 899.348L39.4627 899.656L39.8001 900.597ZM51.2002 924.997L51.5513 925.933L52.564 925.553L52.1062 924.574L51.2002 924.997ZM32.8002 939.197L33.6041 939.792L33.6117 939.781L32.8002 939.197ZM32.0002 988.197L31.1468 988.718L31.1513 988.725L32.0002 988.197ZM50.2002 1004.8L49.7407 1005.69L49.7529 1005.69L50.2002 1004.8ZM104.8 1004.8L105.241 1005.69L105.25 1005.69L105.26 1005.69L104.8 1004.8ZM123 988.197L123.849 988.725L123.853 988.718L123 988.197ZM122.4 939.197L123.212 938.613L123.204 938.602L122.4 939.197ZM103.8 924.997L102.894 924.574L102.436 925.553L103.449 925.933L103.8 924.997ZM115.2 900.597L115.538 899.656L114.68 899.348L114.294 900.174L115.2 900.597ZM134.8 913.197L135.507 912.49L135.499 912.482L134.8 913.197ZM149 934.797L148.079 935.186L148.081 935.191L149 934.797ZM153.4 963.397C153.4 973.94 151.49 983.672 147.68 992.605L149.52 993.389C153.444 984.189 155.4 974.187 155.4 963.397L153.4 963.397ZM147.682 992.6C143.867 1001.41 138.541 1009.17 131.7 1015.88L133.1 1017.31C140.126 1010.42 145.6 1002.45 149.518 993.394L147.682 992.6ZM131.707 1015.88C124.871 1022.45 116.848 1027.58 107.629 1031.27L108.372 1033.13C117.819 1029.35 126.063 1024.08 133.093 1017.32L131.707 1015.88ZM107.629 1031.27C98.4249 1034.95 88.3525 1036.8 77.4002 1036.8L77.4002 1038.8C88.5812 1038.8 98.9087 1036.91 108.372 1033.13L107.629 1031.27ZM77.4002 1036.8C66.4435 1036.8 56.367 1035.02 47.16 1031.46L46.4403 1033.33C55.9 1036.98 66.2235 1038.8 77.4002 1038.8L77.4002 1036.8ZM47.167 1031.47C37.8161 1027.78 29.7983 1022.65 23.1002 1016.08L21.7001 1017.51C28.602 1024.28 36.8509 1029.55 46.4333 1033.33L47.167 1031.47ZM23.1004 1016.08C16.2646 1009.38 11.0072 1001.56 7.32483 992.616L5.47547 993.378C9.25981 1002.57 14.6691 1010.62 21.7 1017.51L23.1004 1016.08ZM7.32 992.605C3.51044 983.672 1.60016 973.94 1.60015 963.397L-0.399845 963.397C-0.399845 974.187 1.55653 984.189 5.48031 993.389L7.32 992.605ZM1.60015 963.397C1.60015 952.843 3.38081 943.447 6.9193 935.191L5.08101 934.403C1.4195 942.946 -0.399846 952.617 -0.399845 963.397L1.60015 963.397ZM6.92152 935.186C10.4752 926.762 15.2037 919.676 21.0993 913.912L19.701 912.482C13.5966 918.451 8.72508 925.765 5.07879 934.408L6.92152 935.186ZM21.1073 913.904C26.8806 908.131 33.224 904.017 40.1376 901.538L39.4627 899.656C32.243 902.244 25.653 906.53 19.693 912.49L21.1073 913.904ZM38.8942 901.02L50.2942 925.42L52.1062 924.574L40.7061 900.174L38.8942 901.02ZM50.849 924.061C43.1917 926.932 36.9003 931.791 31.9886 938.613L33.6117 939.781C38.3 933.27 44.2753 928.662 51.5513 925.933L50.849 924.061ZM31.9963 938.602C26.918 945.465 24.4002 953.748 24.4002 963.397L26.4002 963.397C26.4002 954.113 28.8156 946.262 33.604 939.792L31.9963 938.602ZM24.4002 963.397C24.4002 972.894 26.6409 981.345 31.1469 988.718L32.8534 987.675C28.5594 980.649 26.4002 972.566 26.4002 963.397L24.4002 963.397ZM31.1513 988.725C35.6508 995.952 41.8552 1001.61 49.7407 1005.69L50.6596 1003.91C43.0784 999.987 37.1495 994.575 32.8491 987.668L31.1513 988.725ZM49.7529 1005.69C57.6505 1009.64 66.8761 1011.6 77.4002 1011.6L77.4002 1009.6C67.1243 1009.6 58.2164 1007.69 50.6474 1003.9L49.7529 1005.69ZM77.4002 1011.6C87.9248 1011.6 97.214 1009.64 105.241 1005.69L104.359 1003.9C96.6529 1007.69 87.6755 1009.6 77.4002 1009.6L77.4002 1011.6ZM105.26 1005.69C113.145 1001.61 119.349 995.952 123.849 988.725L122.151 987.668C117.851 994.575 111.922 999.987 104.341 1003.91L105.26 1005.69ZM123.853 988.718C128.359 981.345 130.6 972.894 130.6 963.397L128.6 963.397C128.6 972.566 126.441 980.649 122.147 987.675L123.853 988.718ZM130.6 963.397C130.6 953.754 128.152 945.474 123.212 938.613L121.589 939.781C126.248 946.253 128.6 954.107 128.6 963.397L130.6 963.397ZM123.204 938.602C118.161 931.787 111.806 926.931 104.151 924.061L103.449 925.933C110.728 928.663 116.773 933.274 121.596 939.792L123.204 938.602ZM104.706 925.42L116.106 901.02L114.294 900.174L102.894 924.574L104.706 925.42ZM114.863 901.538C121.779 904.018 128.192 908.134 134.101 913.912L135.499 912.482C129.409 906.527 122.755 902.243 115.538 899.656L114.863 901.538ZM134.093 913.904C139.858 919.669 144.523 926.757 148.079 935.186L149.922 934.408C146.277 925.77 141.475 918.458 135.507 912.49L134.093 913.904ZM148.081 935.191C151.62 943.447 153.4 952.843 153.4 963.397L155.4 963.397C155.4 952.617 153.581 942.946 149.919 934.403L148.081 935.191ZM152 876.514L152 877.514L153 877.514L153 876.514L152 876.514ZM3.00014 876.514L2.00014 876.514L2.00014 877.514L3.00014 877.514L3.00014 876.514ZM3.00014 849.314L3.00014 848.314L2.00014 848.314L2.00014 849.314L3.00014 849.314ZM80.6002 849.314L81.5436 849.646L82.0114 848.314L80.6002 848.314L80.6002 849.314ZM78.0002 856.714L77.3546 857.478L78.4627 858.414L78.9436 857.046L78.0002 856.714ZM3.00014 793.314L2.00014 793.314L2.00014 793.778L2.35456 794.078L3.00014 793.314ZM3.00014 759.114L3.64501 758.35L2.00014 756.962L2.00014 759.114L3.00014 759.114ZM73.4002 818.514L73.3171 819.511L76.4404 819.771L74.045 817.75L73.4002 818.514ZM54.2001 816.914L53.6798 816.06L51.0611 817.656L54.1171 817.911L54.2001 816.914ZM152 757.314L153 757.314L153 755.534L151.48 756.46L152 757.314ZM152 789.314L152.521 790.168L153 789.876L153 789.314L152 789.314ZM86.4002 829.314L85.8795 828.46L84.6917 829.185L85.7568 830.08L86.4002 829.314ZM110.2 849.314L109.557 850.08L109.836 850.314L110.2 850.314L110.2 849.314ZM152 849.314L153 849.314L153 848.314L152 848.314L152 849.314ZM152 875.514L3.00014 875.514L3.00014 877.514L152 877.514L152 875.514ZM4.00014 876.514L4.00014 849.314L2.00014 849.314L2.00014 876.514L4.00014 876.514ZM3.00014 850.314L80.6002 850.314L80.6002 848.314L3.00014 848.314L3.00014 850.314ZM79.6567 848.983L77.0567 856.383L78.9436 857.046L81.5436 849.646L79.6567 848.983ZM78.6457 855.95L3.64572 792.55L2.35456 794.078L77.3546 857.478L78.6457 855.95ZM4.00014 793.314L4.00014 759.114L2.00014 759.114L2.00014 793.314L4.00014 793.314ZM2.35527 759.878L72.7553 819.278L74.045 817.75L3.64501 758.35L2.35527 759.878ZM73.4832 817.518L54.2832 815.918L54.1171 817.911L73.3171 819.511L73.4832 817.518ZM54.7205 817.768L152.521 758.168L151.48 756.46L53.6798 816.06L54.7205 817.768ZM151 757.314L151 789.314L153 789.314L153 757.314L151 757.314ZM151.48 788.46L85.8795 828.46L86.9208 830.168L152.521 790.168L151.48 788.46ZM85.7568 830.08L109.557 850.08L110.843 848.548L87.0435 828.548L85.7568 830.08ZM110.2 850.314L152 850.314L152 848.314L110.2 848.314L110.2 850.314ZM151 849.314L151 876.514L153 876.514L153 849.314L151 849.314ZM152 701.225L152 702.225L153 702.225L153 701.225L152 701.225ZM3.00014 701.225L2.00014 701.225L2.00014 702.225L3.00014 702.225L3.00014 701.225ZM3.00013 601.825L3.00013 600.825L2.00013 600.825L2.00013 601.825L3.00013 601.825ZM27.0001 601.825L28.0001 601.825L28.0001 600.825L27.0001 600.825L27.0001 601.825ZM27.0001 674.025L26.0001 674.025L26.0001 675.025L27.0001 675.025L27.0001 674.025ZM68.2001 674.025L68.2001 675.025L69.2001 675.025L69.2001 674.025L68.2001 674.025ZM68.2001 610.825L68.2001 609.825L67.2001 609.825L67.2001 610.825L68.2001 610.825ZM92.2001 610.825L93.2001 610.825L93.2001 609.825L92.2001 609.825L92.2001 610.825ZM92.2001 674.025L91.2001 674.025L91.2001 675.025L92.2001 675.025L92.2001 674.025ZM152 674.025L153 674.025L153 673.025L152 673.025L152 674.025ZM152 700.225L3.00014 700.225L3.00014 702.225L152 702.225L152 700.225ZM4.00014 701.225L4.00013 601.825L2.00013 601.825L2.00014 701.225L4.00014 701.225ZM3.00013 602.825L27.0001 602.825L27.0001 600.825L3.00013 600.825L3.00013 602.825ZM26.0001 601.825L26.0001 674.025L28.0001 674.025L28.0001 601.825L26.0001 601.825ZM27.0001 675.025L68.2001 675.025L68.2001 673.025L27.0001 673.025L27.0001 675.025ZM69.2001 674.025L69.2001 610.825L67.2001 610.825L67.2001 674.025L69.2001 674.025ZM68.2001 611.825L92.2001 611.825L92.2001 609.825L68.2001 609.825L68.2001 611.825ZM91.2001 610.825L91.2001 674.025L93.2001 674.025L93.2001 610.825L91.2001 610.825ZM92.2001 675.025L152 675.025L152 673.025L92.2001 673.025L92.2001 675.025ZM151 674.025L151 701.225L153 701.225L153 674.025L151 674.025ZM152 582.037L152 583.037L153 583.037L153 582.037L152 582.037ZM3.00013 582.037L2.00013 582.037L2.00013 583.037L3.00013 583.037L3.00013 582.037ZM8.60014 499.837L9.50069 500.272L9.50516 500.263L9.50945 500.254L8.60014 499.837ZM24.6001 481.437L25.1287 482.286L25.136 482.282L24.6001 481.437ZM76.2001 482.237L75.6349 483.062L75.6454 483.07L76.2001 482.237ZM92.2001 501.837L91.2779 502.224L91.7152 503.267L92.6966 502.706L92.2001 501.837ZM152 467.637L153 467.637L153 465.914L151.504 466.769L152 467.637ZM152 498.437L152.488 499.31L153 499.024L153 498.437L152 498.437ZM86.6001 535.037L85.7392 534.529L83.853 537.721L87.0885 535.91L86.6001 535.037ZM97.0001 517.437L98.0001 517.437L98.0001 513.78L96.1392 516.929L97.0001 517.437ZM97.0001 554.837L96.0001 554.837L96.0001 555.837L97.0001 555.837L97.0001 554.837ZM152 554.837L153 554.837L153 553.837L152 553.837L152 554.837ZM73.0001 554.837L73.0001 555.837L74.0001 555.837L74.0001 554.837L73.0001 554.837ZM70.2001 513.437L71.0879 512.977L71.0813 512.964L71.0743 512.952L70.2001 513.437ZM62.0001 505.037L61.5004 505.904L61.5004 505.904L62.0001 505.037ZM38.0001 505.037L38.4999 505.904L38.5073 505.899L38.5146 505.895L38.0001 505.037ZM30.0001 513.437L30.8743 513.923L30.8813 513.911L30.8879 513.898L30.0001 513.437ZM27.0001 554.837L26.0001 554.837L26.0001 555.837L27.0001 555.837L27.0001 554.837ZM152 581.037L3.00013 581.037L3.00013 583.037L152 583.037L152 581.037ZM4.00013 582.037L4.00013 526.637L2.00013 526.637L2.00013 582.037L4.00013 582.037ZM4.00013 526.637C4.00013 516.628 5.84357 507.848 9.50069 500.272L7.69959 499.403C3.89003 507.294 2.00013 516.381 2.00013 526.637L4.00013 526.637ZM9.50945 500.254C13.0311 492.558 18.2354 486.578 25.1287 482.286L24.0716 480.589C16.8315 485.097 11.3691 491.384 7.69083 499.421L9.50945 500.254ZM25.136 482.282C31.8773 478.004 40.1484 475.837 50.0001 475.837L50.0001 473.837C39.8519 473.837 31.1897 476.071 24.0643 480.593L25.136 482.282ZM50.0001 475.837C60.1015 475.837 68.6291 478.262 75.6349 483.062L76.7654 481.413C69.3712 476.346 60.4321 473.837 50.0001 473.837L50.0001 475.837ZM75.6454 483.07C82.6757 487.756 87.8844 494.132 91.2779 502.224L93.1223 501.451C89.5825 493.01 84.1246 486.319 76.7548 481.405L75.6454 483.07ZM92.6966 502.706L152.497 468.506L151.504 466.769L91.7037 500.969L92.6966 502.706ZM151 467.637L151 498.437L153 498.437L153 467.637L151 467.637ZM151.512 497.565L86.1118 534.165L87.0885 535.91L152.488 499.31L151.512 497.565ZM87.4611 535.546L97.8611 517.946L96.1392 516.929L85.7392 534.529L87.4611 535.546ZM96.0001 517.437L96.0001 554.837L98.0001 554.837L98.0001 517.437L96.0001 517.437ZM97.0001 555.837L152 555.837L152 553.837L97.0001 553.837L97.0001 555.837ZM151 554.837L151 582.037L153 582.037L153 554.837L151 554.837ZM74.0001 554.837L74.0001 526.237L72.0001 526.237L72.0001 554.837L74.0001 554.837ZM74.0001 526.237C74.0001 521.178 73.0426 516.747 71.0879 512.977L69.3124 513.898C71.091 517.328 72.0001 521.43 72.0001 526.237L74.0001 526.237ZM71.0743 512.952C68.989 509.198 66.1282 506.265 62.4999 504.171L61.5004 505.904C64.8054 507.81 67.4113 510.477 69.326 513.923L71.0743 512.952ZM62.4999 504.171C58.8619 502.073 54.6852 501.037 50.0001 501.037L50.0001 503.037C54.3818 503.037 58.205 504.002 61.5004 505.904L62.4999 504.171ZM50.0001 501.037C45.1887 501.037 41.003 502.07 37.4856 504.18L38.5146 505.895C41.664 504.005 45.4782 503.037 50.0001 503.037L50.0001 501.037ZM37.5004 504.171C33.866 506.268 31.0657 509.21 29.1124 512.977L30.8879 513.898C32.6679 510.465 35.2009 507.807 38.4999 505.904L37.5004 504.171ZM29.126 512.952C27.0285 516.727 26.0001 521.168 26.0001 526.237L28.0001 526.237C28.0001 521.441 28.9717 517.348 30.8743 513.923L29.126 512.952ZM26.0001 526.237L26.0001 554.837L28.0001 554.837L28.0001 526.237L26.0001 526.237ZM27.0001 555.837L73.0001 555.837L73.0001 553.837L27.0001 553.837L27.0001 555.837ZM152 447.811L152 448.811L153 448.811L153 447.811L152 447.811ZM3.00013 447.811L2.00013 447.811L2.00013 448.811L3.00013 448.811L3.00013 447.811ZM3.00012 420.611L3.00012 419.611L2.00012 419.611L2.00012 420.611L3.00012 420.611ZM152 420.611L153 420.611L153 419.611L152 419.611L152 420.611ZM152 446.811L3.00012 446.811L3.00013 448.811L152 448.811L152 446.811ZM4.00013 447.811L4.00012 420.611L2.00012 420.611L2.00013 447.811L4.00013 447.811ZM3.00012 421.611L152 421.611L152 419.611L3.00012 419.611L3.00012 421.611ZM151 420.611L151 447.811L153 447.811L153 420.611L151 420.611ZM152 389.952L152 390.952L153 390.952L153 389.952L152 389.952ZM3.00012 389.952L2.00012 389.952L2.00012 390.952L3.00012 390.952L3.00012 389.952ZM12.6001 300.352L13.4758 300.835L13.4822 300.823L12.6001 300.352ZM38.8001 273.152L39.2963 274.02L39.3007 274.017L38.8001 273.152ZM116.2 273.152L116.696 272.283L116.692 272.281L116.2 273.152ZM142.6 300.352L143.48 299.876L143.478 299.873L142.6 300.352ZM128 362.752L128 363.752L129 363.752L129 362.752L128 362.752ZM121.8 314.552L122.671 314.061L122.668 314.055L121.8 314.552ZM104.2 297.152L104.684 296.277L104.678 296.273L104.2 297.152ZM50.6001 297.152L51.0844 298.026L50.6001 297.152ZM33.2001 314.552L34.0713 315.043L34.075 315.036L33.2001 314.552ZM27.0001 362.752L26.0001 362.752L26.0001 363.752L27.0001 363.752L27.0001 362.752ZM152 388.952L3.00012 388.952L3.00012 390.952L152 390.952L152 388.952ZM4.00012 389.952L4.00012 341.352L2.00012 341.352L2.00012 389.952L4.00012 389.952ZM4.00012 341.352C4.00012 325.755 7.17137 312.261 13.4757 300.835L11.7245 299.868C5.22887 311.642 2.00012 325.481 2.00012 341.352L4.00012 341.352ZM13.4822 300.823C19.6631 289.25 28.265 280.323 39.2963 274.02L38.304 272.283C26.9352 278.78 18.0705 287.986 11.7181 299.88L13.4822 300.823ZM39.3007 274.017C50.194 267.717 62.883 264.552 77.4001 264.552L77.4001 262.552C62.584 262.552 49.5396 265.786 38.2995 272.286L39.3007 274.017ZM77.4001 264.552C91.7817 264.552 104.542 267.717 115.708 274.022L116.692 272.281C105.192 265.787 92.0853 262.552 77.4001 262.552L77.4001 264.552ZM115.704 274.02C126.737 280.324 135.408 289.254 141.722 300.83L143.478 299.873C136.993 287.983 128.063 278.779 116.696 272.283L115.704 274.02ZM141.72 300.827C147.894 312.255 151 325.752 151 341.352L153 341.352C153 325.484 149.839 311.648 143.48 299.876L141.72 300.827ZM151 341.352L151 389.952L153 389.952L153 341.352L151 341.352ZM129 362.752L129 340.752L127 340.752L127 362.752L129 362.752ZM129 340.752C129 330.481 126.905 321.572 122.671 314.061L120.929 315.043C124.962 322.198 127 330.755 127 340.752L129 340.752ZM122.668 314.055C118.312 306.431 112.313 300.499 104.684 296.277L103.716 298.026C111.021 302.07 116.755 307.739 120.932 315.048L122.668 314.055ZM104.678 296.273C96.9062 292.046 87.8026 289.952 77.4001 289.952L77.4001 291.952C87.531 291.952 96.2941 293.99 103.722 298.03L104.678 296.273ZM77.4001 289.952C66.8675 289.952 57.7599 292.045 50.1158 296.277L51.0844 298.026C58.3737 293.991 67.1328 291.952 77.4001 291.952L77.4001 289.952ZM50.1158 296.277C42.4849 300.501 36.5495 306.436 32.3252 314.067L34.075 315.036C38.1174 307.733 43.7821 302.069 51.0844 298.026L50.1158 296.277ZM32.329 314.061C28.0955 321.572 26.0001 330.481 26.0001 340.752L28.0001 340.752C28.0001 330.755 30.0381 322.198 34.0713 315.043L32.329 314.061ZM26.0001 340.752L26.0001 362.752L28.0001 362.752L28.0001 340.752L26.0001 340.752ZM27.0001 363.752L128 363.752L128 361.752L27.0001 361.752L27.0001 363.752ZM152 258.159L151.674 259.105L153 259.562L153 258.159L152 258.159ZM3.00011 206.759L2.00011 206.759L2.00011 207.472L2.67401 207.705L3.00011 206.759ZM3.00011 171.559L2.674 170.614L2.00011 170.847L2.00011 171.559L3.00011 171.559ZM152 120.159L153 120.159L153 118.757L151.674 119.214L152 120.159ZM152 149.759L152.315 150.709L153 150.482L153 149.759L152 149.759ZM120 160.359L119.686 159.41L119 159.637L119 160.359L120 160.359ZM120 217.959L119 217.959L119 218.677L119.68 218.907L120 217.959ZM152 228.759L153 228.759L153 228.041L152.32 227.812L152 228.759ZM96.0001 210.159L95.6831 211.108L97.0001 211.548L97.0001 210.159L96.0001 210.159ZM96.0001 168.159L97.0001 168.159L97.0001 166.771L95.6831 167.211L96.0001 168.159ZM21.8001 192.959L20.8001 192.959L20.8001 194.348L22.1171 193.908L21.8001 192.959ZM21.8001 185.359L22.1171 184.411L20.8001 183.971L20.8001 185.359L21.8001 185.359ZM152.326 257.214L3.32622 205.814L2.67401 207.705L151.674 259.105L152.326 257.214ZM4.00011 206.759L4.00011 171.559L2.00011 171.559L2.00011 206.759L4.00011 206.759ZM3.32622 172.505L152.326 121.105L151.674 119.214L2.674 170.614L3.32622 172.505ZM151 120.159L151 149.759L153 149.759L153 120.159L151 120.159ZM151.686 148.81L119.686 159.41L120.315 161.309L152.315 150.709L151.686 148.81ZM119 160.359L119 217.959L121 217.959L121 160.359L119 160.359ZM119.68 218.907L151.68 229.707L152.32 227.812L120.32 217.012L119.68 218.907ZM151 228.759L151 258.159L153 258.159L153 228.759L151 228.759ZM97.0001 210.159L97.0001 168.159L95.0001 168.159L95.0001 210.159L97.0001 210.159ZM95.6831 167.211L21.4831 192.011L22.1171 193.908L96.3171 169.108L95.6831 167.211ZM22.8001 192.959L22.8001 185.359L20.8001 185.359L20.8001 192.959L22.8001 192.959ZM21.4831 186.308L95.6831 211.108L96.3171 209.211L22.1171 184.411L21.4831 186.308ZM152 77.639L152 78.639L153 78.639L153 77.639L152 77.639ZM86.0001 77.6391L86.0001 76.6391L85.7212 76.6391L85.4826 76.7834L86.0001 77.6391ZM3.00011 127.839L2.00011 127.839L2.00011 129.613L3.51764 128.695L3.00011 127.839ZM3.00011 96.8391L2.49031 95.9788L2.00011 96.2693L2.00011 96.8391L3.00011 96.8391ZM67.8001 58.4391L68.8001 58.4391L68.8001 56.6841L67.2903 57.5788L67.8001 58.4391ZM67.8001 69.4391L67.2923 70.3005L68.8001 71.1894L68.8001 69.4391L67.8001 69.4391ZM3.00011 31.2391L2.00011 31.2391L2.00011 31.8104L2.49227 32.1005L3.00011 31.2391ZM3.00011 0.239051L3.51703 -0.616979L2.00011 -1.533L2.00011 0.239051L3.00011 0.239051ZM85.8001 50.2391L85.2832 51.0951L85.5216 51.2391L85.8001 51.2391L85.8001 50.2391ZM152 50.2391L153 50.2391L153 49.2391L152 49.2391L152 50.2391ZM152 76.639L86.0001 76.6391L86.0001 78.6391L152 78.639L152 76.639ZM85.4826 76.7834L2.48259 126.983L3.51764 128.695L86.5176 78.4947L85.4826 76.7834ZM4.00011 127.839L4.00011 96.8391L2.00011 96.8391L2.00011 127.839L4.00011 127.839ZM3.50991 97.6994L68.3099 59.2993L67.2903 57.5788L2.49031 95.9788L3.50991 97.6994ZM66.8001 58.4391L66.8001 69.4391L68.8001 69.4391L68.8001 58.4391L66.8001 58.4391ZM68.3079 68.5776L3.50794 30.3776L2.49227 32.1005L67.2923 70.3005L68.3079 68.5776ZM4.00011 31.2391L4.00011 0.239051L2.00011 0.239051L2.00011 31.2391L4.00011 31.2391ZM2.48318 1.09508L85.2832 51.0951L86.317 49.383L3.51703 -0.616979L2.48318 1.09508ZM85.8001 51.2391L152 51.2391L152 49.2391L85.8001 49.2391L85.8001 51.2391ZM151 50.2391L151 77.639L153 77.639L153 50.2391L151 50.2391Z" fill="white"/>
</svg>
